<?xml version="1.0" encoding="utf-8"?>
<!-- Generator: Adobe Illustrator 22.1.0, SVG Export Plug-In . SVG Version: 6.00 Build 0)  -->
<svg version="1.1" id="Layer_1" xmlns="http://www.w3.org/2000/svg" xmlns:xlink="http://www.w3.org/1999/xlink" x="0px" y="0px"
	 viewBox="0 0 32 32" style="enable-background:new 0 0 32 32;" xml:space="preserve">
<style type="text/css">
	.st0{fill:#FF4081;}
</style>
<g>
	<g id="loop_x5F_alt2">
		<g>
			<path class="st0" d="M19.9,22l6-8l6,8h-4v2c0,3.3-2.7,6-6,6H10c-3.3,0-6-2.7-6-6v-2h4v2c0,1.1,0.9,2,2,2h12c1.1,0,2-0.9,2-2v-2
				H19.9z"/>
			<path class="st0" d="M12.1,10l-6,8l-6-8h4V8c0-3.3,2.7-6,6-6h12c3.3,0,6,2.7,6,6v2h-4V8c0-1.1-0.9-2-2-2H10C8.9,6,8,6.9,8,8v2
				H12.1z"/>
		</g>
	</g>
</g>
</svg>
