<?xml version="1.0" encoding="utf-8"?>
<!-- Generator: Adobe Illustrator 22.1.0, SVG Export Plug-In . SVG Version: 6.00 Build 0)  -->
<svg version="1.1" id="Layer_1" xmlns="http://www.w3.org/2000/svg" xmlns:xlink="http://www.w3.org/1999/xlink" x="0px" y="0px"
	 viewBox="0 0 32 32" style="enable-background:new 0 0 32 32;" xml:space="preserve">
<style type="text/css">
	.st0{fill:#FF4081;}
</style>
<g>
	<g>
		<path class="st0" d="M6.6,30.4c0,0.9,0.7,1.5,1.6,1.5h15c0.9,0,1.6-0.7,1.6-1.5l1.1-22.6H5.5L6.6,30.4z M19.1,13.4
			c0-0.4,0.3-0.7,0.7-0.7h1c0.4,0,0.7,0.3,0.7,0.7v12.9c0,0.4-0.3,0.7-0.7,0.7h-1c-0.4,0-0.7-0.3-0.7-0.7V13.4z M14.5,13.4
			c0-0.4,0.3-0.7,0.7-0.7h1c0.4,0,0.7,0.3,0.7,0.7v12.9c0,0.4-0.3,0.7-0.7,0.7h-1c-0.4,0-0.7-0.3-0.7-0.7V13.4L14.5,13.4z M9.9,13.4
			c0-0.4,0.3-0.7,0.7-0.7h1c0.4,0,0.7,0.3,0.7,0.7v12.9c0,0.4-0.3,0.7-0.7,0.7h-1c-0.4,0-0.7-0.3-0.7-0.7V13.4z"/>
		<path class="st0" d="M26.6,1.6h-6.9V0.3c0-0.2-0.2-0.3-0.3-0.3H12c-0.2,0-0.3,0.2-0.3,0.3v1.3H4.8c-0.6,0-1,0.5-1,1v3.2h23.8V2.7
			C27.6,2.1,27.1,1.6,26.6,1.6z"/>
	</g>
</g>
</svg>
