<?xml version="1.0" encoding="utf-8"?>
<!-- Generator: Adobe Illustrator 22.1.0, SVG Export Plug-In . SVG Version: 6.00 Build 0)  -->
<svg version="1.1" id="Layer_1" xmlns="http://www.w3.org/2000/svg" xmlns:xlink="http://www.w3.org/1999/xlink" x="0px" y="0px"
	 viewBox="0 0 32 32" style="enable-background:new 0 0 32 32;" xml:space="preserve">
<style type="text/css">
	.st0{fill:#3F51B5;}
</style>
<g>
	<path class="st0" d="M8.8,26.6c-0.6-0.6-1.6-0.6-2.2,0c0,0,0,0,0,0l0,0l-1.2-1.2l0,0c0,0,0,0,0,0c0.6-0.6,0.6-1.6,0-2.2
		c-0.6-0.6-1.6-0.6-2.2,0l-1.7,7.3l7.3-1.7C9.4,28.2,9.4,27.2,8.8,26.6L8.8,26.6z"/>
	<path class="st0" d="M8.6,24.6c0.5,0.1,1,0.4,1.4,0.8c0.5,0.5,0.7,1,0.9,1.6l12.7-12.7L21.2,12L8.6,24.6z"/>
	<path class="st0" d="M7.4,23.4L20,10.8l-2.3-2.3L5,21.1c0.6,0.1,1.1,0.4,1.6,0.9C7,22.4,7.2,22.9,7.4,23.4z"/>
	<path class="st0" d="M18.9,7.2l1.5-1.5l5.9,5.9l-1.5,1.5L18.9,7.2z"/>
	<path class="st0" d="M30.5,6.3c0-0.7-0.3-1.4-0.8-1.9l-2.2-2.2c-0.5-0.5-1.2-0.8-1.9-0.8s-1.4,0.3-1.9,0.8l-2.3,2.3l5.9,5.9
		l2.3-2.3C30.2,7.7,30.5,7,30.5,6.3L30.5,6.3z"/>
</g>
</svg>
